<?xml version="1.0" encoding="UTF-8"?>
<!DOCTYPE svg PUBLIC "-//W3C//DTD SVG 1.1//EN" "http://www.w3.org/Graphics/SVG/1.1/DTD/svg11.dtd">
<svg xmlns="http://www.w3.org/2000/svg" version="1.1" width="100px" height="100px" style="shape-rendering:geometricPrecision; text-rendering:geometricPrecision; image-rendering:optimizeQuality; fill-rule:evenodd; clip-rule:evenodd" xmlns:xlink="http://www.w3.org/1999/xlink">
<g><path style="opacity:0.999" fill="#55c2fe" d="M 44.5,-0.5 C 48.1667,-0.5 51.8333,-0.5 55.5,-0.5C 80.5255,3.85879 95.1921,18.5255 99.5,43.5C 99.5,47.1667 99.5,50.8333 99.5,54.5C 95.2456,81.4211 79.5789,96.4211 52.5,99.5C 49.8333,99.5 47.1667,99.5 44.5,99.5C 20.3265,95.9967 5.32655,82.33 -0.5,58.5C -0.5,52.8333 -0.5,47.1667 -0.5,41.5C 4.87284,17.1255 19.8728,3.12554 44.5,-0.5 Z"/></g>
<g><path style="opacity:1" fill="#f5f6f7" d="M 49.5,24.5 C 37.6616,24.8334 29.495,30.5001 25,41.5C 22.8621,67.031 34.3621,77.531 59.5,73C 69.5507,68.439 74.5507,60.6057 74.5,49.5C 76.8333,49.5 79.1667,49.5 81.5,49.5C 78.6828,73.0993 65.3495,83.5993 41.5,81C 21.7604,73.3556 14.2604,59.1889 19,38.5C 24.8462,25.1647 35.0128,18.1647 49.5,17.5C 49.5,19.8333 49.5,22.1667 49.5,24.5 Z"/></g>
<g><path style="opacity:1" fill="#050607" d="M 49.5,24.5 C 49.5,26.8333 49.5,29.1667 49.5,31.5C 33.192,34.4377 28.0253,43.771 34,59.5C 44.2841,70.0415 54.6175,70.0415 65,59.5C 66.4613,56.3214 67.2946,52.9881 67.5,49.5C 69.8333,49.5 72.1667,49.5 74.5,49.5C 74.5507,60.6057 69.5507,68.439 59.5,73C 34.3621,77.531 22.8621,67.031 25,41.5C 29.495,30.5001 37.6616,24.8334 49.5,24.5 Z"/></g>
</svg>
